<?xml version="1.0" standalone="no"?>
<!DOCTYPE svg PUBLIC "-//W3C//DTD SVG 20010904//EN"
 "http://www.w3.org/TR/2001/REC-SVG-20010904/DTD/svg10.dtd">
<svg version="1.0" xmlns="http://www.w3.org/2000/svg"
 width="300.000000pt" height="300.000000pt" viewBox="0 0 300.000000 300.000000"
 preserveAspectRatio="xMidYMid meet">
<metadata>
Created by potrace 1.11, written by Peter Selinger 2001-2013
</metadata>
<g transform="translate(0.000000,300.000000) scale(0.100000,-0.100000)"
fill="#000000" stroke="none">
<path d="M710 2570 c-26 -26 -12 -61 20 -53 31 8 43 38 24 57 -20 20 -20 20
-44 -4z"/>
<path d="M2005 2568 c-10 -15 -11 -26 -4 -40 11 -21 14 -21 40 -8 26 14 25 56
-1 63 -13 3 -25 -2 -35 -15z"/>
<path d="M1148 2494 c-16 -8 -31 -27 -34 -42 -9 -38 -24 -53 -45 -47 -12 4
-22 -1 -29 -15 -11 -21 -10 -21 30 -24 19 -1 19 -5 -3 -91 -37 -148 -23 -185
57 -144 63 32 108 73 100 93 -5 14 -12 12 -47 -14 -73 -53 -79 -42 -44 80 l22
75 38 -1 c32 0 37 3 37 22 0 20 -4 23 -34 20 l-34 -4 14 52 c8 28 14 52 14 54
0 5 -17 0 -42 -14z"/>
<path d="M661 2424 c-18 -8 -45 -24 -60 -37 -22 -18 -25 -26 -17 -39 9 -15 13
-15 39 4 28 20 29 20 23 2 -3 -10 -24 -89 -47 -174 -23 -85 -45 -163 -50 -172
-11 -20 -40 -23 -68 -8 -12 6 -24 5 -35 -3 -24 -18 1 -48 42 -52 79 -7 129 68
188 280 58 208 56 229 -15 199z"/>
<path d="M854 2420 c-46 -20 -73 -50 -96 -105 -23 -54 -28 -98 -16 -141 20
-72 116 -77 184 -9 30 29 63 97 65 131 3 66 0 82 -23 108 -30 33 -66 38 -114
16z m57 -51 c14 -27 13 -122 -2 -151 -29 -56 -64 -73 -89 -43 -16 19 -16 126
0 156 32 61 70 77 91 38z"/>
<path d="M1385 2425 c-71 -25 -124 -107 -128 -196 -3 -85 44 -128 115 -109 40
12 104 72 123 116 26 62 23 135 -7 168 -31 33 -55 38 -103 21z m46 -56 c14
-27 13 -122 -2 -151 -48 -93 -104 -70 -101 40 3 99 70 172 103 111z"/>
<path d="M1634 2422 c-56 -31 -85 -59 -78 -77 6 -14 11 -12 35 11 16 15 29 22
29 16 0 -6 -12 -62 -26 -124 -15 -62 -26 -115 -26 -118 2 -7 39 -8 49 -1 5 3
19 44 31 91 19 72 28 90 59 118 36 32 63 41 63 22 0 -5 -11 -53 -25 -106 -23
-89 -24 -99 -10 -121 9 -12 19 -23 24 -23 19 0 106 66 109 83 5 23 -17 21 -45
-5 -13 -12 -26 -19 -29 -15 -3 3 4 43 17 89 32 121 35 149 14 164 -21 16 -37
10 -97 -33 l-47 -34 9 30 c5 19 4 33 -3 40 -14 14 -16 14 -53 -7z"/>
<path d="M1963 2426 c-35 -12 -83 -50 -83 -66 0 -14 33 -13 48 2 24 24 23 -2
-3 -84 -52 -159 -27 -201 75 -128 33 24 40 25 40 7 0 -8 8 -21 19 -31 21 -19
51 -11 104 26 27 20 30 20 24 4 -4 -10 -2 -25 4 -32 9 -11 17 -11 47 2 43 17
82 52 82 71 0 18 -20 16 -41 -3 -9 -8 -19 -12 -22 -7 -2 4 9 58 24 118 35 137
35 139 8 124 -12 -6 -36 -13 -54 -15 -52 -6 -77 -19 -119 -61 -40 -39 -75
-103 -76 -138 0 -14 -3 -16 -11 -8 -8 8 -17 4 -34 -15 -13 -15 -26 -24 -29
-21 -3 3 8 54 24 112 42 151 39 166 -27 143z m267 -74 c0 -3 -7 -32 -16 -64
-18 -64 -52 -108 -83 -108 -55 0 -9 157 53 179 21 8 46 4 46 -7z"/>
</g>
</svg>
